<svg id="Layer_1" data-name="Layer 1" xmlns="http://www.w3.org/2000/svg" width="1000" height="1200" viewBox="0 0 1000 1200"><defs><style>.cls-1{fill:#fff;}.cls-2{fill-rule:evenodd;}</style></defs><title>logo</title><circle class="cls-1" cx="473" cy="473" r="473"/><path class="cls-2" d="M84.81,490.08c0,228.68,185.38,414.07,414.06,414.07S912.93,718.76,912.93,490.08,727.55,76,498.87,76,84.81,261.41,84.81,490.08ZM498.87,874.22a383.32,383.32,0,0,1-146.77-29l-.4-.16,49.08-107.37.36.15a265.79,265.79,0,0,0,97.73,18.51c147,0,266.22-119.2,266.22-266.23a267.67,267.67,0,0,0-1.91-32H528.58L610.43,279l.39.21a239.35,239.35,0,0,1,58.24,43.5l19.7-19.19a265.4,265.4,0,0,0-189.89-79.64c-147,0-266.22,119.19-266.22,266.22A266.54,266.54,0,0,0,373,724.72l.34.18-49.1,107.41-.38-.19a384.59,384.59,0,0,1-209.11-342c0-212.15,172-384.13,384.14-384.13S883,277.93,883,490.08,711,874.22,498.87,874.22ZM737.59,490.08c.64,132-107,238.73-238.72,238.73a238.51,238.51,0,0,1-86.23-16l-.41-.16,103-225.25H737.58v2.73ZM582.83,266.54,384.78,699.83l-.39-.21A239,239,0,0,1,260.14,490.08c0-131.84,106.89-238.72,238.73-238.72a238.49,238.49,0,0,1,83.54,15Z" transform="translate(-25 -17)"/></svg>