<?xml version="1.0" standalone="no"?>
<!DOCTYPE svg PUBLIC "-//W3C//DTD SVG 20010904//EN"
 "http://www.w3.org/TR/2001/REC-SVG-20010904/DTD/svg10.dtd">
<svg version="1.0" xmlns="http://www.w3.org/2000/svg"
 width="2100.000000pt" height="2100.000000pt" viewBox="0 0 2100.000000 2100.000000"
 preserveAspectRatio="xMidYMid meet">

<g transform="translate(0.000000,2100.000000) scale(0.100000,-0.100000)"
fill="#000000" stroke="none">
<path d="M9990 19084 c-544 -44 -965 -117 -1450 -254 -1574 -443 -2980 -1464
-3887 -2820 -588 -881 -957 -1854 -1092 -2885 -47 -359 -55 -485 -55 -895 0
-301 5 -435 18 -565 30 -297 73 -593 111 -770 8 -38 22 -104 31 -145 52 -249
169 -640 274 -914 126 -332 340 -774 509 -1056 500 -832 1134 -1524 1908
-2083 737 -533 1575 -917 2463 -1131 387 -93 647 -134 1105 -178 177 -17 935
-17 1125 0 524 46 1008 136 1460 270 1133 338 2123 927 2955 1757 530 528 932
1075 1268 1725 201 389 401 900 501 1280 14 52 36 138 50 190 68 259 126 604
168 995 30 284 32 941 5 1215 -38 370 -108 791 -172 1035 -9 33 -29 112 -46
175 -61 231 -185 588 -292 840 -428 1007 -1099 1908 -1942 2607 -978 810
-2103 1320 -3390 1537 -448 75 -1170 107 -1625 70z m930 -504 c932 -65 1787
-300 2579 -711 1004 -521 1832 -1264 2445 -2193 199 -302 441 -762 571 -1086
69 -170 188 -518 224 -650 76 -283 106 -420 155 -710 85 -497 99 -1109 40
-1695 -8 -82 -19 -177 -25 -210 -94 -546 -162 -812 -315 -1235 -92 -255 -140
-366 -279 -645 -321 -645 -678 -1139 -1199 -1661 -451 -450 -876 -773 -1432
-1087 -103 -58 -419 -216 -501 -251 -35 -14 -86 -37 -115 -50 -89 -41 -385
-151 -533 -199 -435 -141 -782 -215 -1340 -286 -261 -34 -849 -45 -1160 -22
-476 35 -946 118 -1385 246 -274 80 -578 189 -586 210 -3 6 16 55 41 109 25
53 45 98 45 100 0 2 20 46 44 97 24 52 78 168 119 259 113 248 241 527 275
600 16 36 58 126 91 200 34 74 81 177 104 227 23 51 47 93 54 93 7 0 87 -25
178 -55 353 -118 684 -187 1062 -220 296 -26 451 -29 698 -11 296 22 472 47
720 101 963 213 1818 716 2465 1452 647 735 1035 1658 1100 2618 6 88 10 320
8 515 l-3 355 -2027 3 c-1116 1 -2028 4 -2028 7 0 5 51 117 265 585 31 69 68
150 82 180 14 30 50 109 80 175 31 66 77 167 103 225 27 58 76 166 110 240 34
74 74 160 87 190 14 30 50 109 80 175 31 66 77 167 103 225 27 58 100 218 163
355 63 138 125 273 137 300 105 229 129 275 147 275 22 0 252 -133 388 -223
160 -106 329 -239 483 -380 39 -37 75 -67 80 -67 4 0 94 87 200 193 l193 193
-83 80 c-95 91 -251 220 -388 321 -852 630 -1920 951 -2972 895 -840 -44
-1607 -291 -2303 -740 -263 -170 -485 -351 -736 -602 -368 -367 -638 -738
-856 -1181 -237 -479 -377 -959 -440 -1505 -22 -187 -25 -709 -5 -889 106
-975 471 -1809 1109 -2535 334 -380 736 -701 1211 -969 61 -35 112 -66 112
-68 0 -5 -74 -167 -202 -448 -33 -71 -79 -173 -103 -225 -24 -52 -84 -185
-135 -295 -51 -110 -125 -272 -165 -360 -117 -258 -156 -339 -167 -352 -11
-13 -86 21 -263 120 -567 316 -1011 651 -1461 1101 -325 325 -573 629 -820
1002 -356 538 -644 1170 -804 1762 -22 81 -44 161 -49 177 -20 61 -103 495
-121 635 -69 517 -77 1042 -25 1545 63 602 222 1215 461 1779 734 1725 2237
3070 4049 3621 456 139 934 231 1380 265 77 6 158 12 180 13 101 8 675 6 805
-3z m-155 -2410 c288 -19 590 -73 877 -156 190 -55 238 -72 238 -84 0 -4 -22
-54 -49 -111 -26 -57 -69 -149 -94 -204 -25 -55 -86 -190 -137 -300 -51 -110
-112 -245 -137 -300 -25 -55 -72 -156 -103 -225 -32 -69 -69 -150 -83 -180
-13 -30 -77 -170 -142 -310 -64 -140 -135 -295 -157 -345 -23 -49 -63 -137
-90 -193 -26 -57 -48 -105 -48 -107 0 -2 -17 -41 -39 -87 -69 -149 -148 -320
-224 -488 -41 -91 -92 -201 -112 -245 -20 -44 -46 -100 -57 -125 -11 -25 -47
-103 -80 -175 -33 -71 -81 -177 -108 -235 -51 -111 -144 -315 -190 -415 -69
-149 -146 -317 -243 -530 -58 -126 -119 -259 -135 -295 -16 -36 -56 -121 -87
-190 -32 -69 -79 -172 -105 -230 -27 -58 -87 -190 -135 -295 -48 -104 -112
-244 -142 -310 -30 -66 -80 -174 -110 -240 -93 -205 -137 -300 -286 -625 -79
-173 -154 -336 -165 -362 -12 -27 -24 -48 -27 -48 -16 0 -269 148 -365 214
-812 555 -1362 1308 -1619 2218 -48 168 -80 327 -113 555 -19 138 -22 199 -22
488 0 355 10 472 70 779 72 366 232 797 422 1131 79 139 248 388 354 521 133
168 457 491 628 627 273 217 587 408 885 538 619 269 1264 382 1930 339z
m3743 -3903 c10 -12 2 -259 -13 -412 -77 -765 -360 -1452 -849 -2065 -120
-150 -409 -442 -559 -566 -993 -816 -2309 -1117 -3565 -813 -172 41 -438 124
-447 139 -5 8 63 163 184 423 23 49 41 90 41 92 0 3 16 37 36 77 19 40 48 102
64 138 15 36 69 153 118 260 49 107 102 222 117 255 15 33 52 114 82 180 31
66 77 167 103 225 27 58 114 249 195 425 81 176 167 365 192 420 25 55 72 156
103 225 32 69 70 152 85 185 41 89 179 392 247 540 33 72 74 162 91 200 17 39
36 73 42 77 5 4 845 8 1866 8 1485 0 1859 -3 1867 -13z"/>
<path d="M3662 4141 c-59 -20 -114 -67 -142 -121 -37 -72 -41 -139 -38 -560 3
-356 6 -411 21 -451 26 -66 70 -114 135 -146 51 -25 67 -28 152 -27 79 0 103
4 140 23 139 71 163 145 158 486 l-3 220 -134 3 c-101 2 -136 -1 -143 -10 -4
-7 -8 -45 -8 -84 0 -78 13 -101 52 -91 41 11 48 -8 48 -127 0 -143 -7 -180
-38 -211 -19 -19 -35 -25 -68 -25 -54 0 -92 30 -104 85 -11 45 -13 681 -4 763
9 73 38 102 101 102 88 0 113 -40 113 -182 l0 -78 96 0 96 0 -4 118 c-5 140
-27 200 -93 261 -75 69 -219 91 -333 52z"/>
<path d="M15892 4141 c-66 -23 -123 -77 -154 -145 -23 -51 -23 -52 -23 -501 0
-436 1 -451 21 -495 31 -67 68 -106 132 -137 50 -24 69 -28 147 -28 78 0 97 4
147 28 115 57 148 127 155 330 l5 137 -96 0 -96 0 0 -105 c0 -68 -5 -118 -14
-139 -39 -95 -168 -87 -196 12 -13 50 -13 754 0 804 14 48 43 68 100 68 85 0
110 -42 110 -182 l0 -78 96 0 97 0 -5 118 c-6 139 -30 205 -96 264 -73 66
-218 88 -330 49z"/>
<path d="M4753 4138 c-9 -12 -28 -126 -118 -698 -18 -118 -41 -258 -50 -310
-40 -238 -45 -274 -32 -282 15 -10 148 -10 163 0 6 4 15 27 18 52 4 25 12 76
18 113 l11 68 126 -3 125 -3 17 -108 c8 -59 20 -112 26 -118 5 -5 48 -9 99 -7
l89 3 -1 40 c-1 41 -12 115 -89 590 -24 149 -53 333 -65 410 -12 77 -27 167
-34 200 l-12 60 -141 3 c-105 2 -143 -1 -150 -10z m172 -465 c15 -109 35 -243
45 -298 10 -55 16 -103 13 -107 -2 -5 -47 -8 -100 -8 l-95 0 6 33 c3 18 17
113 31 212 14 99 30 207 35 240 6 33 13 75 16 93 3 17 8 32 13 32 4 0 20 -89
36 -197z"/>
<path d="M5727 4136 c-8 -21 -9 -1259 -1 -1280 5 -13 22 -16 93 -16 47 0 92 4
98 8 9 6 13 75 15 267 l3 260 47 3 c64 4 111 -17 131 -60 20 -43 25 -91 26
-290 1 -192 -1 -188 116 -188 46 0 86 3 88 8 8 17 -11 470 -22 505 -7 21 -32
59 -57 84 -24 26 -44 47 -44 48 0 1 20 22 45 48 60 63 70 102 69 272 0 125 -3
146 -23 193 -27 59 -82 112 -138 132 -24 8 -111 14 -239 17 -178 4 -202 3
-207 -11z m370 -200 c28 -24 28 -25 31 -158 2 -94 -1 -140 -10 -158 -20 -37
-74 -61 -133 -58 l-50 3 -3 198 -2 197 69 0 c59 0 74 -4 98 -24z"/>
<path d="M6846 4134 c-3 -9 -6 -298 -6 -644 0 -547 2 -629 15 -640 11 -10 62
-11 208 -8 178 5 196 7 247 30 63 29 98 63 132 128 l23 45 0 450 c0 445 0 451
-22 495 -66 132 -137 160 -414 160 -152 0 -178 -2 -183 -16z m369 -184 c52
-20 55 -45 55 -457 0 -357 -1 -380 -20 -410 -27 -45 -51 -54 -128 -51 l-67 3
-3 463 -2 462 69 0 c38 0 81 -4 96 -10z"/>
<path d="M8130 4128 c-5 -13 -20 -95 -34 -183 -13 -88 -45 -288 -70 -445 -25
-157 -59 -366 -75 -465 -16 -99 -27 -183 -24 -187 8 -14 173 -9 178 5 3 6 13
59 23 117 l17 105 126 3 125 3 18 -113 c9 -62 20 -116 25 -121 4 -4 48 -7 97
-5 l89 3 -1 50 c-1 28 -9 93 -17 145 -19 112 -105 647 -146 907 -16 100 -32
187 -36 193 -4 6 -60 10 -146 10 -135 0 -140 -1 -149 -22z m165 -383 c52 -345
65 -433 65 -458 l0 -28 -92 3 -93 3 3 40 c2 22 12 96 23 165 19 119 43 280 55
363 9 59 21 33 39 -88z"/>
<path d="M11437 4143 c-4 -3 -7 -295 -7 -649 0 -576 2 -642 16 -648 20 -8 128
-8 148 0 14 5 16 52 16 422 0 228 3 413 6 409 8 -8 16 -49 54 -277 17 -102 40
-239 51 -305 11 -66 25 -147 30 -179 6 -33 12 -63 15 -68 6 -10 165 -10 180 0
10 6 34 156 110 671 14 91 27 167 29 170 7 7 8 -38 5 -447 -2 -283 1 -376 10
-387 14 -16 154 -22 178 -7 10 7 12 144 10 653 l-3 644 -138 3 c-104 2 -138 0
-142 -10 -2 -7 -16 -94 -30 -193 -14 -99 -37 -247 -50 -330 -13 -82 -30 -193
-36 -245 -7 -52 -15 -99 -19 -103 -7 -8 -25 78 -55 263 -53 332 -97 594 -102
606 -4 11 -34 14 -137 14 -73 0 -136 -3 -139 -7z"/>
<path d="M12817 4143 c-4 -3 -7 -293 -7 -643 0 -528 2 -640 14 -649 9 -8 91
-11 277 -9 l264 3 3 93 3 92 -176 0 -175 0 0 190 0 189 138 3 137 3 0 90 0 90
-137 3 -138 3 0 179 0 180 175 0 175 0 0 95 0 95 -273 0 c-151 0 -277 -3 -280
-7z"/>
<path d="M13878 4144 c-5 -4 -8 -297 -8 -650 l0 -644 26 -6 c43 -11 376 2 414
16 70 26 121 70 147 127 39 85 45 167 41 568 -4 320 -7 376 -22 416 -24 66
-76 122 -138 150 -49 21 -69 23 -253 27 -110 2 -203 0 -207 -4z m372 -194 c43
-23 50 -91 50 -455 0 -462 -2 -469 -150 -463 l-75 3 -3 450 c-1 248 0 456 3
463 6 15 147 17 175 2z"/>
<path d="M15012 4138 c-17 -17 -18 -1268 0 -1286 17 -17 172 -16 187 2 8 9 10
189 9 652 l-3 639 -90 3 c-62 2 -94 -1 -103 -10z"/>
<path d="M16975 4141 c-3 -5 -14 -69 -25 -143 -19 -125 -35 -220 -140 -871
-23 -141 -39 -264 -36 -272 4 -12 24 -15 85 -15 95 0 93 -3 110 125 7 50 15
96 17 103 2 9 37 12 129 12 69 0 125 -1 125 -3 0 -33 34 -215 42 -224 12 -15
183 -19 192 -4 3 4 -1 48 -9 97 -8 49 -26 163 -40 254 -14 91 -43 273 -65 405
-21 132 -48 301 -60 375 -11 74 -23 143 -26 153 -5 15 -21 17 -149 17 -79 0
-146 -4 -150 -9z m164 -396 c7 -55 26 -179 42 -275 16 -96 29 -183 29 -192 0
-16 -11 -18 -95 -18 -74 0 -95 3 -95 14 0 38 75 541 87 580 9 32 19 0 32 -109z"/>
<path d="M9995 3668 c-90 -31 -140 -111 -133 -212 16 -260 408 -246 408 14 0
141 -143 244 -275 198z"/>
</g>
</svg>
