<svg id="Layer_4" data-name="Layer 4" xmlns="http://www.w3.org/2000/svg" viewBox="0 0 207.22 207.22"><defs><style>.cls-1,.cls-2{fill:#f4cf41;}.cls-1{fill-rule:evenodd;}</style></defs><title>logo kuning</title><path class="cls-1" d="M409.41,473.54a100,100,0,1,0,100-100,100,100,0,0,0-100,100Zm100,92.76a92.67,92.67,0,0,1-35.44-7l-.1,0,11.86-25.93.08,0a64.34,64.34,0,0,0,87.43-67.55H516.57l19.76-43.24.1.05a57.81,57.81,0,0,1,14.06,10.5l4.76-4.63A64.29,64.29,0,1,0,463.93,519,64.75,64.75,0,0,0,479,530.2l.08,0-11.85,25.94-.09,0a92.78,92.78,0,1,1,42.26,10.17ZM567,473.54a57.7,57.7,0,0,1-78.47,53.77l-.1,0,24.86-54.39H567v.66Zm-37.37-54L481.84,524.19l-.09-.06a57.66,57.66,0,0,1,47.82-104.61Z" transform="translate(-405.78 -369.93)"/><path class="cls-2" d="M509.39,577.15A103.34,103.34,0,1,1,549.72,569,102.89,102.89,0,0,1,509.39,577.15Zm-30.65-19.88a89.24,89.24,0,1,0-32.38-20.7,89.65,89.65,0,0,0,19.17,14.59l8.87-19.41a68.53,68.53,0,0,1-13-10.19,67.91,67.91,0,1,1,96.46-95.62l2.55,2.6-9.94,9.68-2.53-2.57a54.41,54.41,0,0,0-9.94-8l-15.77,34.5h54.23l.38,3.19a68,68,0,0,1-89.2,72.51ZM469,561l.06,0L534.34,418.2l-.06,0Zm24.43-35.86a54,54,0,0,0,69.93-48.66H515.66Zm16-105.65A54,54,0,0,0,480.22,519l44.48-97.31A54,54,0,0,0,509.39,419.51Z" transform="translate(-405.78 -369.93)"/></svg>