<svg id="Layer_1" data-name="Layer 1" xmlns="http://www.w3.org/2000/svg" viewBox="0 0 16 16"><defs><style>.cls-1{fill:#333;}</style></defs><title>Antrian Verifikasi</title><path class="cls-1" d="M13.43,1.22H2.57A1.58,1.58,0,0,0,1,2.79V13.65a1.58,1.58,0,0,0,1.57,1.57H13.43A1.58,1.58,0,0,0,15,13.65V2.79A1.58,1.58,0,0,0,13.43,1.22ZM5.5,4.78a.56.56,0,0,1,.56-.56H9.94a.56.56,0,0,1,.56.56v.13a.56.56,0,0,1-.56.56H6.06a.56.56,0,0,1-.56-.56Zm0,2.63V7.28a.56.56,0,0,1,.56-.56H9.94a.56.56,0,0,1,.56.56v.13A.56.56,0,0,1,9.94,8H6.06A.56.56,0,0,1,5.5,7.41Zm8.39.73-4.31,4a.73.73,0,0,1-.51.2.79.79,0,0,1-.42-.12L6.21,10.59a.74.74,0,0,1-.21-1,.76.76,0,0,1,1-.21l2,1.3L12.86,7a.75.75,0,0,1,1.06,0A.75.75,0,0,1,13.89,8.14Z"/></svg>