<svg id="Layer_1" data-name="Layer 1" xmlns="http://www.w3.org/2000/svg" viewBox="0 0 16 16"><defs><style>.cls-1{fill:#333;}</style></defs><title>Antrian Lab Pending</title><path class="cls-1" d="M7.48,5.23a.17.17,0,0,0-.15-.17H5.91a.16.16,0,0,0-.14.17V7.48L4.56,9.83l1.07-.41,1,.51,1-.38L8.75,10l.11.17L7.48,7.45Z"/><path class="cls-1" d="M13.24,1H2.77A1.77,1.77,0,0,0,1,2.77V13.24A1.78,1.78,0,0,0,2.77,15H13.24A1.77,1.77,0,0,0,15,13.24V2.77A1.76,1.76,0,0,0,13.24,1ZM9.91,12H3.35a.55.55,0,0,1-.52-.82l2.51-4V4.46a.21.21,0,0,1,.22-.2H7.68a.21.21,0,0,1,.22.2v2.7l2.52,4A.55.55,0,0,1,9.91,12Zm2-1.88a1.69,1.69,0,1,1,1.69-1.69A1.69,1.69,0,0,1,11.94,10.13Zm1.12-4.25H10.81a.56.56,0,0,1,0-1.12h2.25a.56.56,0,1,1,0,1.12Zm0-1.87H10.81a.57.57,0,0,1-.56-.57.56.56,0,0,1,.56-.56h2.25a.57.57,0,0,1,.57.56A.58.58,0,0,1,13.06,4Z"/><path class="cls-1" d="M11.94,7.26a1.19,1.19,0,1,0,1.19,1.18A1.18,1.18,0,0,0,11.94,7.26ZM12,8.88l-.29-.14.07-.14-.5-.06,0-.34.68.07.31-.64.28.14Z"/></svg>