<svg id="Layer_1" data-name="Layer 1" xmlns="http://www.w3.org/2000/svg" viewBox="0 0 16 16"><defs><style>.cls-1{fill:#333;}</style></defs><title>Antrian Poliklinik</title><path class="cls-1" d="M11.37,8.67a.54.54,0,1,0,.54.54A.54.54,0,0,0,11.37,8.67Z"/><path class="cls-1" d="M13.24,1H2.77A1.76,1.76,0,0,0,1,2.72V13.19A1.77,1.77,0,0,0,2.77,15H13.24A1.78,1.78,0,0,0,15,13.19V2.72A1.77,1.77,0,0,0,13.24,1Zm-1.68,9.49a4,4,0,0,1-.62,1.42,2.75,2.75,0,0,1-2,1.21H8.62a2.87,2.87,0,0,1-1.82-1.3,6,6,0,0,1-1-3.35,2.71,2.71,0,0,1-1.15-.55A5.21,5.21,0,0,1,2.93,4.45a.81.81,0,0,1-.3-.62A.84.84,0,0,1,3.46,3a.85.85,0,0,1,.84.84.83.83,0,0,1-.62.79A4.38,4.38,0,0,0,5.09,7.31a1.76,1.76,0,0,0,1.31.42c1.22-.15,2-1.83,2.16-3.12A.8.8,0,0,1,8,3.83a.83.83,0,1,1,1.66,0,.79.79,0,0,1-.31.63C9.19,6,8.23,8.21,6.51,8.45a5.37,5.37,0,0,0,.87,2.9,2.18,2.18,0,0,0,1.34,1,1.92,1.92,0,0,0,1.63-.89,3.35,3.35,0,0,0,.49-1.11,1.26,1.26,0,1,1,.72.1Zm1.38-3.74H10.82a.56.56,0,0,1-.56-.56.57.57,0,0,1,.56-.57h2.12a.58.58,0,0,1,.57.57A.57.57,0,0,1,12.94,6.71Zm.13-1.88H10.82a.56.56,0,1,1,0-1.12h2.25a.56.56,0,1,1,0,1.12Z"/></svg>