<svg id="Layer_1" data-name="Layer 1" xmlns="http://www.w3.org/2000/svg" viewBox="0 0 16 16"><defs><style>.cls-1{fill:#333;}</style></defs><title>Antrian TTV</title><path class="cls-1" d="M13.23,1H2.76A1.76,1.76,0,0,0,1,2.76V13.23A1.77,1.77,0,0,0,2.76,15H13.23A1.78,1.78,0,0,0,15,13.23V2.76A1.77,1.77,0,0,0,13.23,1ZM4,8.16l.73-.6A.85.85,0,0,1,4.87,8a.94.94,0,1,1-.31-.67L3.83,8Zm8.23.22a1.14,1.14,0,0,1-1,1.11,1.49,1.49,0,0,0,0,.21,8.92,8.92,0,0,1,0,1.6A3.64,3.64,0,0,1,10.81,13,2.42,2.42,0,0,1,9.4,14a2.6,2.6,0,0,1-.74.11,4,4,0,0,1-1-.15,3,3,0,0,1-1.76-1,3.35,3.35,0,0,1-.58-1.21l0-.11a6.23,6.23,0,0,1-.22-2.59H4.89a1.41,1.41,0,1,0-2-1.94V3.56A1.25,1.25,0,0,1,4.12,2.32H6.48A1.25,1.25,0,0,1,7.72,3.56V7.85A1.25,1.25,0,0,1,6.48,9.09h-.9a5.66,5.66,0,0,0,.2,2.44l0,.11a2.82,2.82,0,0,0,.48,1,2.48,2.48,0,0,0,1.51.8,2.4,2.4,0,0,0,1.44,0,1.93,1.93,0,0,0,1.15-.81,3.44,3.44,0,0,0,.35-1.48,8,8,0,0,0,0-1.51l0-.28a1.12,1.12,0,0,1-.81-1.07V7.74a1.15,1.15,0,1,1,2.29,0Zm.84-2.51H10.81a.56.56,0,0,1,0-1.12h2.25a.56.56,0,0,1,0,1.12Zm0-1.87H10.81a.57.57,0,0,1,0-1.13h2.25a.57.57,0,0,1,0,1.13Z"/></svg>