<svg id="Layer_1" data-name="Layer 1" xmlns="http://www.w3.org/2000/svg" viewBox="0 0 16 16"><defs><style>.cls-1{fill:#333;}</style></defs><title>Antrian Radiologi Pending</title><path class="cls-1" d="M11.94,7.24a1.19,1.19,0,1,0,1.19,1.19A1.19,1.19,0,0,0,11.94,7.24ZM12,8.88l-.29-.14.07-.14-.5-.06,0-.34.68.07.31-.64.28.14Z"/><path class="cls-1" d="M13.23,1H2.77A1.78,1.78,0,0,0,1,2.76V13.23A1.77,1.77,0,0,0,2.77,15H13.23A1.76,1.76,0,0,0,15,13.23V2.76A1.77,1.77,0,0,0,13.23,1ZM4.71,11.74a.91.91,0,0,1,.72-.38h.43a.21.21,0,0,0,.41,0h.36a.9.9,0,0,1,.71.38ZM7.27,9.82H6.54v.56h.72a1,1,0,0,1,.87,1,1.27,1.27,0,0,1-.05.34H7.77a1.13,1.13,0,0,0-1-.8H6.28V5.31a.22.22,0,1,0-.43,0v5.63H5.33a1.14,1.14,0,0,0-1,.8H4.08a1.27,1.27,0,0,1,0-.34,1,1,0,0,1,.86-1h.69V9.82H4.73a2,2,0,0,1-2-1.54A.27.27,0,0,1,3,8h0a.28.28,0,0,1,.27.18,1.7,1.7,0,0,0,1.6,1.08h.65V8.1H4.82A1.88,1.88,0,0,1,3,6.56a.28.28,0,0,1,.26-.33h0a.28.28,0,0,1,.25.19A1.56,1.56,0,0,0,5,7.49h.58V6.43H5A1.72,1.72,0,0,1,3.37,4.89a.27.27,0,0,1,.23-.32h0a.23.23,0,0,1,.21.18A1.4,1.4,0,0,0,5.12,5.82h.46V5.23a.52.52,0,0,1,.48-.57.53.53,0,0,1,.48.57v.59h.31A1.39,1.39,0,0,0,8.14,4.75a.23.23,0,0,1,.22-.18.26.26,0,0,1,.23.32A1.71,1.71,0,0,1,7,6.43H6.54V7.49H7A1.57,1.57,0,0,0,8.43,6.42a.27.27,0,0,1,.25-.19.28.28,0,0,1,.26.33A1.88,1.88,0,0,1,7.13,8.1H6.54V9.22h.54A1.71,1.71,0,0,0,8.69,8.14a.29.29,0,0,1,.56.14A2,2,0,0,1,7.27,9.82Zm4.67.3a1.69,1.69,0,1,1,1.69-1.69A1.69,1.69,0,0,1,11.94,10.12Zm1.12-4.25H10.81a.56.56,0,0,1-.56-.56.57.57,0,0,1,.56-.57h2.25a.58.58,0,0,1,.57.57A.57.57,0,0,1,13.06,5.87Zm0-1.88H10.81a.56.56,0,0,1,0-1.12h2.25a.56.56,0,1,1,0,1.12Z"/></svg>