<svg id="Layer_1" data-name="Layer 1" xmlns="http://www.w3.org/2000/svg" viewBox="0 0 16 16"><defs><style>.cls-1{fill:#333;}.cls-2{fill:#fff;}</style></defs><title>Antrian Lab</title><path class="cls-1" d="M13.23,1H2.77A1.77,1.77,0,0,0,1,2.76V13.23A1.78,1.78,0,0,0,2.77,15H13.23A1.77,1.77,0,0,0,15,13.23V2.76A1.76,1.76,0,0,0,13.23,1Zm-.17,4.87H10.81a.56.56,0,0,1,0-1.12h2.25a.56.56,0,1,1,0,1.12Zm0-1.87H10.81a.57.57,0,0,1,0-1.13h2.25a.57.57,0,1,1,0,1.13Z"/><path class="cls-2" d="M10.42,11.05,7.89,7V4.32a.2.2,0,0,0-.21-.2H5.56a.21.21,0,0,0-.22.2V7.06l-2.51,4a.55.55,0,0,0,.52.82H9.91A.55.55,0,0,0,10.42,11.05ZM5.76,7.34V5.09a.16.16,0,0,1,.15-.16H7.33a.16.16,0,0,1,.15.16V7.32L8.86,10l-.11-.18L7.67,9.42l-1,.38-1-.51-1.07.4Z"/></svg>