<svg id="Layer_1" data-name="Layer 1" xmlns="http://www.w3.org/2000/svg" viewBox="0 0 16 16"><defs><style>.cls-1{fill:#f2f2f2;}.cls-2{fill:#333;}</style></defs><title>Farmasi</title><rect class="cls-1" x="9.37" y="6.19" width="0.14" height="0.43" rx="0.06" ry="0.06"/><path class="cls-2" d="M8.17,1.42,7.4,1.15A2.61,2.61,0,0,0,4.06,2.77L1.17,11.13a2.68,2.68,0,0,0,1.61,3.4l.76.28a2.62,2.62,0,0,0,3.35-1.62L9.78,4.82A2.69,2.69,0,0,0,8.17,1.42Zm.89,3.71L7.81,8.74,3.23,7.09,4.47,3.48A2.43,2.43,0,0,1,7.57,2,2.49,2.49,0,0,1,9.06,5.13Z"/><path class="cls-2" d="M8.45,9.49A3.58,3.58,0,0,0,9,14.2,3.57,3.57,0,0,0,13.7,14Z"/><path class="cls-2" d="M9,8.82l5.27,4.5a3.6,3.6,0,0,0-.44-4.82A3.6,3.6,0,0,0,9,8.82Z"/></svg>