<svg id="Layer_1" data-name="Layer 1" xmlns="http://www.w3.org/2000/svg" viewBox="0 0 16 16"><defs><style>.cls-1{fill:#333;}</style></defs><title>Kasir</title><rect class="cls-1" x="4.92" y="2.29" width="1.19" height="0.31"/><path class="cls-1" d="M14.53,12.47h0L14,6.81V6.54c0-1-.53-1.84-1.19-1.84H7V1.28A.25.25,0,0,0,6.72,1H4.15a.25.25,0,0,0-.23.27V4.7H3.19c-.54,0-1,.56-1.14,1.31H2l-.55,6.46h0A.5.5,0,0,0,1,13v1.46a.5.5,0,0,0,.47.53H14.53a.5.5,0,0,0,.47-.53V13A.5.5,0,0,0,14.53,12.47ZM9.83,5.88a.26.26,0,0,1,.24-.27h2.37a.26.26,0,0,1,.23.27v2a.26.26,0,0,1-.23.27H10.07a.26.26,0,0,1-.24-.27Zm-1.58,5v1a.25.25,0,0,1-.24.26H6.54a.25.25,0,0,1-.23-.26v-1a.26.26,0,0,1,.23-.27H8A.26.26,0,0,1,8.25,10.92Zm-.1-2.26v1a.25.25,0,0,1-.24.26H6.44a.25.25,0,0,1-.23-.26v-1a.25.25,0,0,1,.23-.26H7.91A.25.25,0,0,1,8.15,8.66ZM3.6,6.34a.26.26,0,0,1,.24-.27h.65a.28.28,0,0,1-.06-.18V1.8a.25.25,0,0,1,.23-.27H6.29a.25.25,0,0,1,.23.27V5.89a.28.28,0,0,1-.06.18h.85a.26.26,0,0,1,.23.27v.18a.25.25,0,0,1-.23.26H3.84a.25.25,0,0,1-.24-.26ZM3.66,11a.26.26,0,0,1,.24-.27H5.37A.25.25,0,0,1,5.6,11v1a.25.25,0,0,1-.23.27H3.9a.26.26,0,0,1-.24-.27Zm0-1.34v-1a.25.25,0,0,1,.24-.26H5.33a.25.25,0,0,1,.23.26v1a.25.25,0,0,1-.23.26H3.86A.25.25,0,0,1,3.62,9.63ZM13.49,14a.51.51,0,0,1-.47.54H2.92A.51.51,0,0,1,2.45,14v-.56a.51.51,0,0,1,.47-.54H13a.51.51,0,0,1,.47.54Z"/><rect class="cls-1" x="4.92" y="3.14" width="1.19" height="0.31"/><rect class="cls-1" x="4.92" y="3.99" width="1.19" height="0.31"/><rect class="cls-1" x="4.9" y="4.77" width="1.19" height="0.31"/></svg>