<svg id="Layer_1" data-name="Layer 1" xmlns="http://www.w3.org/2000/svg" viewBox="0 0 16 16"><defs><style>.cls-1{fill:#333;}</style></defs><title>List Kehadiran</title><path class="cls-1" d="M12.74.72H3.26A2.27,2.27,0,0,0,1,3v9.48a2.27,2.27,0,0,0,2.26,2.26h9.48A2.27,2.27,0,0,0,15,12.46V3A2.27,2.27,0,0,0,12.74.72Zm-6.24,5A1.92,1.92,0,1,1,4.58,7.67,1.91,1.91,0,0,1,6.5,5.76ZM10.24,12a1.31,1.31,0,0,1-1.31,1.31H3.81A1.31,1.31,0,0,1,2.5,12v-.45a1.31,1.31,0,0,1,1.31-1.31H8.93a1.31,1.31,0,0,1,1.31,1.31Zm3.25-8.9L10,5.86a.5.5,0,0,1-.65,0L7.66,4.25a.5.5,0,0,1,.68-.74l1.41,1.3,3.12-2.46a.5.5,0,0,1,.7.08A.5.5,0,0,1,13.49,3.13Z"/></svg>