<svg id="Layer_1" data-name="Layer 1" xmlns="http://www.w3.org/2000/svg" viewBox="0 0 16 16"><defs><style>.cls-1{fill:#333;}</style></defs><title>Radiologi</title><path class="cls-1" d="M14.16,1H1.84A.91.91,0,0,0,1,2V14a.92.92,0,0,0,.84,1H14.16A.92.92,0,0,0,15,14V2A.92.92,0,0,0,14.16,1ZM6,13.57A1.36,1.36,0,0,1,7,13h.65a.35.35,0,0,0,.32.26A.34.34,0,0,0,8.32,13h.54a1.36,1.36,0,0,1,1.08.58Zm6.87-5.24a3,3,0,0,1-3,2.33H8.73v.85h1.1a1.44,1.44,0,0,1,1.31,1.54h0a1.77,1.77,0,0,1-.08.52H10.6A1.74,1.74,0,0,0,9,12.35H8.34V3.82a.34.34,0,1,0-.67,0v8.53H6.89a1.73,1.73,0,0,0-1.57,1.22H5a1.77,1.77,0,0,1-.08-.52h0a1.44,1.44,0,0,1,1.31-1.54h1v-.85H6A3,3,0,0,1,3,8.33a.42.42,0,0,1,.43-.49h0a.44.44,0,0,1,.42.28A2.58,2.58,0,0,0,6.29,9.74h1V8H6.12A2.82,2.82,0,0,1,3.38,5.71a.41.41,0,0,1,.39-.49h0a.39.39,0,0,1,.38.28A2.38,2.38,0,0,0,6.39,7.12h.87V5.52H6.34A2.6,2.6,0,0,1,3.93,3.19a.4.4,0,0,1,.34-.5h0A.37.37,0,0,1,4.62,3a2.14,2.14,0,0,0,2,1.63h.68V3.69A.81.81,0,0,1,8,2.83H8a.81.81,0,0,1,.73.86V4.6H9.2a2.12,2.12,0,0,0,2-1.63.38.38,0,0,1,.34-.28.4.4,0,0,1,.34.5A2.61,2.61,0,0,1,9.42,5.52H8.73v1.6h.64A2.38,2.38,0,0,0,11.59,5.5.41.41,0,0,1,12,5.22h0a.41.41,0,0,1,.39.49A2.82,2.82,0,0,1,9.62,8H8.73v1.7h.82A2.58,2.58,0,0,0,12,8.12a.45.45,0,0,1,.42-.28h0A.42.42,0,0,1,12.83,8.33Z"/></svg>