<svg id="Layer_1" data-name="Layer 1" xmlns="http://www.w3.org/2000/svg" viewBox="0 0 16 16"><defs><style>.cls-1{fill:#333;stroke:#333;stroke-miterlimit:10;stroke-width:0.5px;}</style></defs><title>Rawat Jalan</title><path class="cls-1" d="M12.94,7.63a1.69,1.69,0,0,0-1.69,1.69,1.67,1.67,0,0,0,1,1.52,4.44,4.44,0,0,1-.65,1.48c-.1.14-1,1.37-2.19,1.2a2.86,2.86,0,0,1-1.78-1.34A7.07,7.07,0,0,1,6.44,8.3C8.74,8,10,5,10.17,3a1.09,1.09,0,0,0,.42-.85,1.12,1.12,0,0,0-2.23,0,1.1,1.1,0,0,0,.82,1.06C9,4.89,7.92,7.13,6.29,7.34a2.33,2.33,0,0,1-1.75-.57,5.87,5.87,0,0,1-1.89-3.6,1.1,1.1,0,0,0,.83-1.06,1.12,1.12,0,0,0-2.23,0,1.09,1.09,0,0,0,.4.84A7,7,0,0,0,3.94,7.53a3.65,3.65,0,0,0,1.53.73,8.07,8.07,0,0,0,1.36,4.49,3.84,3.84,0,0,0,2.44,1.73l.35,0a3.69,3.69,0,0,0,2.75-1.62,5.42,5.42,0,0,0,.82-1.9,1.68,1.68,0,0,0-.25-3.35Zm0,2.41a.72.72,0,0,1-.72-.72.72.72,0,1,1,1.44,0A.72.72,0,0,1,12.94,10Z"/></svg>