<svg id="Layer_1" data-name="Layer 1" xmlns="http://www.w3.org/2000/svg" viewBox="0 0 16 16"><defs><style>.cls-1{fill:#333;}</style></defs><title>Rawat Inap</title><path class="cls-1" d="M14.76,7.94h-.9c-.14,0-.25.15-.25.33V9.59a.77.77,0,0,0-.6-.32H6.77c-.48,0-.88.53-.88,1.19V11a.91.91,0,0,0,0,.17H5.78a.28.28,0,0,0,0-.09v-.62c0-.73-.44-1.32-1-1.32H3.6a.91.91,0,0,0-.77.52V5.2c0-.19-.12-.34-.25-.34H1.25C1.11,4.86,1,5,1,5.2v9.37c0,.18.11.33.25.33H2.58c.13,0,.25-.15.25-.33v-1H13.61v1.14c0,.18.11.33.25.33h.9c.13,0,.24-.15.24-.33V8.27C15,8.09,14.89,7.94,14.76,7.94Zm-1.15,5H2.83v-.41H13.61Z"/><path class="cls-1" d="M6.37,4.19h.82V5a.62.62,0,0,0,.61.62h.53A.61.61,0,0,0,8.94,5V4.19h.82a.62.62,0,0,0,.62-.61V3.05a.62.62,0,0,0-.62-.61H8.94V1.62A.61.61,0,0,0,8.33,1H7.8a.62.62,0,0,0-.61.62v.82H6.37a.62.62,0,0,0-.62.61v.53A.62.62,0,0,0,6.37,4.19Z"/></svg>