<svg id="Layer_1" data-name="Layer 1" xmlns="http://www.w3.org/2000/svg" viewBox="0 0 16 16"><defs><style>.cls-1{fill:#333;}</style></defs><title>Registrasi</title><path class="cls-1" d="M13.5,2H10V1.45A.48.48,0,0,0,9.49,1h-3A.49.49,0,0,0,6,1.45V2H2.44A1.47,1.47,0,0,0,1,3.46v10A1.47,1.47,0,0,0,2.44,15H13.5A1.47,1.47,0,0,0,15,13.5v-10A1.47,1.47,0,0,0,13.5,2ZM5.85,5.87H10c.23,0,.41.26.41.59S10.25,7,10,7H5.85c-.24,0-.42-.26-.42-.58S5.61,5.87,5.85,5.87ZM13.16,8l-2.94,4.19a.5.5,0,0,1-.27.39l-.08,0a.61.61,0,0,1-.14.07l-1.19.58a.51.51,0,0,1-.73-.49L8,11.2a.5.5,0,0,1,.3-.42L8.79,10h-3c-.24,0-.42-.26-.42-.58s.18-.58.42-.58H9.61L11.19,6.6A.58.58,0,0,1,12,6.46l1,.71A.58.58,0,0,1,13.16,8Z"/></svg>