<svg id="Layer_1" data-name="Layer 1" xmlns="http://www.w3.org/2000/svg" viewBox="0 0 16 16"><defs><style>.cls-1{fill:#333;}</style></defs><title>Rekam Medis</title><path class="cls-1" d="M4.35,5.55l8.23,0V4.16c0-.78-.42-1.41-.94-1.41H5.32V2.14C5.32,1.51,5,1,4.56,1H2c-.42,0-.76.51-.76,1.14V3.25A1.86,1.86,0,0,0,1,4.16v8.78a1.91,1.91,0,0,0,.08.54.5.5,0,0,1,0-.13v0L3.67,6.08A.74.74,0,0,1,4.35,5.55Z"/><path class="cls-1" d="M14.26,6,4.46,6a.74.74,0,0,0-.68.53L1.24,13.73l0,0a.86.86,0,0,0,.61,1.15l.16,0h.07l9.69,0c.09,0,.29.08.61-.27a2.45,2.45,0,0,0,.53-1L15,6.88A.82.82,0,0,0,14.26,6Zm-3.64,4.84a.27.27,0,0,1-.28.28H9.25v1.1A.29.29,0,0,1,9,12.5H8a.28.28,0,0,1-.28-.28v-1.1H6.65a.28.28,0,0,1-.28-.28V9.9a.29.29,0,0,1,.28-.28h1.1V8.53A.27.27,0,0,1,8,8.25H9a.28.28,0,0,1,.28.28V9.62h1.09a.28.28,0,0,1,.28.28Z"/></svg>